# xmcd
#
# Track frame offsets:
#	150
#	10047
#	19150
#	30511
#	44403
#	52568
#	62707
#	73350
#	84967
#	95646
#	106729
#	118275
#	127987
#	138127
#	147777
#	158721
#	169350
#	180992
#	193957
#
# Disc length: 2712 seconds
#
# Revision: 0
# Processed by: cddbd v1.4PL0 Copyright (c) Steve Scherf et al.
# Submitted via: EasyCDDAExtractor 4.6.0.1
#
DISCID=fa0a9613
DTITLE=Annita - What Good'll It Do Me
DYEAR=2002
DGENRE=Country
TTITLE0=Bigelow 6-200
TTITLE1=I'm Going Hunting Tonight
TTITLE2=Fickle Heart
TTITLE3=This Should Go On Forever
TTITLE4=Friction Heat
TTITLE5=Hi Diddle Dee
TTITLE6=Why Don't You Haul Off And Love Me
TTITLE7=Twice The Lovin' (In Half The Time)
TTITLE8=Hello Baby
TTITLE9=Loose Talk
TTITLE10=I've Stopped My Dreamin' About You
TTITLE11=I'm Waiting Just For You
TTITLE12=10:10 AM
TTITLE13=What Good'll It Do Me
TTITLE14=You Can't Have My Love
TTITLE15=Columbus Stockade Blues
TTITLE16=Mr. Misery
TTITLE17=Lovey Dovey
TTITLE18=The Honeymoon's Over
EXTD=
EXTT0=
EXTT1=
EXTT2=
EXTT3=
EXTT4=
EXTT5=
EXTT6=
EXTT7=
EXTT8=
EXTT9=
EXTT10=
EXTT11=
EXTT12=
EXTT13=
EXTT14=
EXTT15=
EXTT16=
EXTT17=
EXTT18=
PLAYORDER=
